HIERARCHY
ROOT Hips
{
	OFFSET -339.306915 540.749023 89.171944
	CHANNELS 6 Xposition Yposition Zposition Zrotation Yrotation Xrotation
	JOINT Spine
	{
		OFFSET 0.000000 2.080078 8.814247
		CHANNELS 6 Xposition Yposition Zposition Zrotation Yrotation Xrotation
		JOINT Spine1
		{
			OFFSET 0.000000 0.000000 8.844139
			CHANNELS 6 Xposition Yposition Zposition Zrotation Yrotation Xrotation
			JOINT Spine2
			{
				OFFSET 0.000000 0.000000 11.682266
				CHANNELS 6 Xposition Yposition Zposition Zrotation Yrotation Xrotation
				JOINT Spine3
				{
					OFFSET 0.000000 0.000000 11.746696
					CHANNELS 6 Xposition Yposition Zposition Zrotation Yrotation Xrotation
					JOINT Neck
					{
						OFFSET 0.000000 0.000000 17.658264
						CHANNELS 6 Xposition Yposition Zposition Zrotation Yrotation Xrotation
						JOINT Neck1
						{
							OFFSET 0.000000 0.000000 5.101517
							CHANNELS 6 Xposition Yposition Zposition Zrotation Yrotation Xrotation
							JOINT Head
							{
								OFFSET 0.000000 0.000000 5.101517
								CHANNELS 6 Xposition Yposition Zposition Zrotation Yrotation Xrotation
								JOINT HeadEnd
								{
									OFFSET 0.000000 0.000000 11.655090
									CHANNELS 6 Xposition Yposition Zposition Zrotation Yrotation Xrotation
									End Site
									{
										OFFSET 0.000000 0.000000 0.100006
									}
								}
							}
						}
					}
					JOINT RightShoulder
					{
						OFFSET -2.625397 0.000000 11.175217
						CHANNELS 6 Xposition Yposition Zposition Zrotation Yrotation Xrotation
						JOINT RightArm
						{
							OFFSET 0.000000 0.000000 10.434708
							CHANNELS 6 Xposition Yposition Zposition Zrotation Yrotation Xrotation
							JOINT RightForeArm
							{
								OFFSET 0.000000 0.000000 29.628418
								CHANNELS 6 Xposition Yposition Zposition Zrotation Yrotation Xrotation
								JOINT RightHand
								{
									OFFSET 0.000000 0.000000 22.857605
									CHANNELS 6 Xposition Yposition Zposition Zrotation Yrotation Xrotation
									JOINT RightHandThumb1
									{
										OFFSET -2.867310 -2.944275 3.959564
										CHANNELS 6 Xposition Yposition Zposition Zrotation Yrotation Xrotation
										JOINT RightHandThumb2
										{
											OFFSET 0.000000 0.000000 3.350403
											CHANNELS 6 Xposition Yposition Zposition Zrotation Yrotation Xrotation
											JOINT RightHandThumb3
											{
												OFFSET 0.000000 0.000000 3.756516
												CHANNELS 6 Xposition Yposition Zposition Zrotation Yrotation Xrotation
												JOINT RightHandThumb4
												{
													OFFSET 0.000000 0.000000 3.147339
													CHANNELS 6 Xposition Yposition Zposition Zrotation Yrotation Xrotation
													End Site
													{
														OFFSET 0.000000 0.000000 0.100006
													}
												}
											}
										}
									}
									JOINT RightHandIndex1
									{
										OFFSET -0.086761 -2.345276 10.030899
										CHANNELS 6 Xposition Yposition Zposition Zrotation Yrotation Xrotation
										JOINT RightHandIndex2
										{
											OFFSET 0.000000 0.000000 4.061096
											CHANNELS 6 Xposition Yposition Zposition Zrotation Yrotation Xrotation
											JOINT RightHandIndex3
											{
												OFFSET 0.000000 0.000000 3.248871
												CHANNELS 6 Xposition Yposition Zposition Zrotation Yrotation Xrotation
												JOINT RightHandIndex4
												{
													OFFSET 0.000000 0.000000 2.639709
													CHANNELS 6 Xposition Yposition Zposition Zrotation Yrotation Xrotation
													End Site
													{
														OFFSET 0.000000 0.000000 0.100006
													}
												}
											}
										}
									}
									JOINT RightHandMiddle1
									{
										OFFSET 0.104095 -0.006775 9.502945
										CHANNELS 6 Xposition Yposition Zposition Zrotation Yrotation Xrotation
										JOINT RightHandMiddle2
										{
											OFFSET 0.000000 0.000000 4.568726
											CHANNELS 6 Xposition Yposition Zposition Zrotation Yrotation Xrotation
											JOINT RightHandMiddle3
											{
												OFFSET 0.000000 0.000000 3.654984
												CHANNELS 6 Xposition Yposition Zposition Zrotation Yrotation Xrotation
												JOINT RightHandMiddle4
												{
													OFFSET 0.000000 0.000000 2.741241
													CHANNELS 6 Xposition Yposition Zposition Zrotation Yrotation Xrotation
													End Site
													{
														OFFSET 0.000000 0.000000 0.100006
													}
												}
											}
										}
									}
									JOINT RightHandRing1
									{
										OFFSET 0.086761 2.267456 8.921707
										CHANNELS 6 Xposition Yposition Zposition Zrotation Yrotation Xrotation
										JOINT RightHandRing2
										{
											OFFSET 0.000000 0.000000 4.061096
											CHANNELS 6 Xposition Yposition Zposition Zrotation Yrotation Xrotation
											JOINT RightHandRing3
											{
												OFFSET 0.000000 0.000000 3.654984
												CHANNELS 6 Xposition Yposition Zposition Zrotation Yrotation Xrotation
												JOINT RightHandRing4
												{
													OFFSET 0.000000 0.000000 2.741241
													CHANNELS 6 Xposition Yposition Zposition Zrotation Yrotation Xrotation
													End Site
													{
														OFFSET 0.000000 0.000000 0.100006
													}
												}
											}
										}
									}
									JOINT RightHandPinky1
									{
										OFFSET -0.173492 4.467224 7.976990
										CHANNELS 6 Xposition Yposition Zposition Zrotation Yrotation Xrotation
										JOINT RightHandPinky2
										{
											OFFSET 0.000000 0.000000 3.350403
											CHANNELS 6 Xposition Yposition Zposition Zrotation Yrotation Xrotation
											JOINT RightHandPinky3
											{
												OFFSET 0.000000 0.000000 2.842758
												CHANNELS 6 Xposition Yposition Zposition Zrotation Yrotation Xrotation
												JOINT RightHandPinky4
												{
													OFFSET 0.000000 0.000000 2.639709
													CHANNELS 6 Xposition Yposition Zposition Zrotation Yrotation Xrotation
													End Site
													{
														OFFSET 0.000000 0.000000 0.100006
													}
												}
											}
										}
									}
									JOINT RightForeArmEnd
									{
										OFFSET 0.000000 0.000000 0.000000
										CHANNELS 6 Xposition Yposition Zposition Zrotation Yrotation Xrotation
										End Site
										{
											OFFSET 0.000000 0.000000 0.100006
										}
									}
								}
								JOINT RightArmEnd
								{
									OFFSET 0.000000 0.000000 0.000000
									CHANNELS 6 Xposition Yposition Zposition Zrotation Yrotation Xrotation
									End Site
									{
										OFFSET 0.000000 0.000000 0.100006
									}
								}
							}
						}
					}
					JOINT LeftShoulder
					{
						OFFSET 2.625397 0.000000 11.175217
						CHANNELS 6 Xposition Yposition Zposition Zrotation Yrotation Xrotation
						JOINT LeftArm
						{
							OFFSET 0.000000 0.000000 10.813629
							CHANNELS 6 Xposition Yposition Zposition Zrotation Yrotation Xrotation
							JOINT LeftForeArm
							{
								OFFSET 0.000000 0.000000 28.724777
								CHANNELS 6 Xposition Yposition Zposition Zrotation Yrotation Xrotation
								JOINT LeftHand
								{
									OFFSET 0.644379 0.328857 25.716171
									CHANNELS 6 Xposition Yposition Zposition Zrotation Yrotation Xrotation
									JOINT LeftHandThumb1
									{
										OFFSET 2.867310 -2.944275 3.959564
										CHANNELS 6 Xposition Yposition Zposition Zrotation Yrotation Xrotation
										JOINT LeftHandThumb2
										{
											OFFSET 0.000000 0.000000 3.350403
											CHANNELS 6 Xposition Yposition Zposition Zrotation Yrotation Xrotation
											JOINT LeftHandThumb3
											{
												OFFSET 0.000000 0.000000 3.756516
												CHANNELS 6 Xposition Yposition Zposition Zrotation Yrotation Xrotation
												JOINT LeftHandThumb4
												{
													OFFSET 0.000000 0.000000 3.100006
													CHANNELS 6 Xposition Yposition Zposition Zrotation Yrotation Xrotation
													End Site
													{
														OFFSET 0.000000 0.000000 0.100006
													}
												}
											}
										}
									}
									JOINT LeftHandIndex1
									{
										OFFSET 0.086761 -2.345276 10.030899
										CHANNELS 6 Xposition Yposition Zposition Zrotation Yrotation Xrotation
										JOINT LeftHandIndex2
										{
											OFFSET 0.000000 0.000000 4.061096
											CHANNELS 6 Xposition Yposition Zposition Zrotation Yrotation Xrotation
											JOINT LeftHandIndex3
											{
												OFFSET 0.000000 0.000000 3.248871
												CHANNELS 6 Xposition Yposition Zposition Zrotation Yrotation Xrotation
												JOINT LeftHandIndex4
												{
													OFFSET 0.000000 0.000000 2.639709
													CHANNELS 6 Xposition Yposition Zposition Zrotation Yrotation Xrotation
													End Site
													{
														OFFSET 0.000000 0.000000 0.100006
													}
												}
											}
										}
									}
									JOINT LeftHandMiddle1
									{
										OFFSET -0.104095 -0.006775 9.502945
										CHANNELS 6 Xposition Yposition Zposition Zrotation Yrotation Xrotation
										JOINT LeftHandMiddle2
										{
											OFFSET 0.000000 0.000000 4.568726
											CHANNELS 6 Xposition Yposition Zposition Zrotation Yrotation Xrotation
											JOINT LeftHandMiddle3
											{
												OFFSET 0.000000 0.000000 3.654984
												CHANNELS 6 Xposition Yposition Zposition Zrotation Yrotation Xrotation
												JOINT LeftHandMiddle4
												{
													OFFSET 0.000000 0.000000 2.741241
													CHANNELS 6 Xposition Yposition Zposition Zrotation Yrotation Xrotation
													End Site
													{
														OFFSET 0.000000 0.000000 0.100006
													}
												}
											}
										}
									}
									JOINT LeftHandRing1
									{
										OFFSET -0.086761 2.267456 8.921707
										CHANNELS 6 Xposition Yposition Zposition Zrotation Yrotation Xrotation
										JOINT LeftHandRing2
										{
											OFFSET 0.000000 0.000000 4.061096
											CHANNELS 6 Xposition Yposition Zposition Zrotation Yrotation Xrotation
											JOINT LeftHandRing3
											{
												OFFSET 0.000000 0.000000 3.654984
												CHANNELS 6 Xposition Yposition Zposition Zrotation Yrotation Xrotation
												JOINT LeftHandRing4
												{
													OFFSET 0.000000 0.000000 2.741241
													CHANNELS 6 Xposition Yposition Zposition Zrotation Yrotation Xrotation
													End Site
													{
														OFFSET 0.000000 0.000000 0.100006
													}
												}
											}
										}
									}
									JOINT LeftHandPinky1
									{
										OFFSET 0.173492 4.467224 7.976990
										CHANNELS 6 Xposition Yposition Zposition Zrotation Yrotation Xrotation
										JOINT LeftHandPinky2
										{
											OFFSET 0.000000 0.000000 3.350403
											CHANNELS 6 Xposition Yposition Zposition Zrotation Yrotation Xrotation
											JOINT LeftHandPinky3
											{
												OFFSET 0.000000 0.000000 2.842758
												CHANNELS 6 Xposition Yposition Zposition Zrotation Yrotation Xrotation
												JOINT LeftHandPinky4
												{
													OFFSET 0.000000 0.000000 2.639709
													CHANNELS 6 Xposition Yposition Zposition Zrotation Yrotation Xrotation
													End Site
													{
														OFFSET 0.000000 0.000000 0.100006
													}
												}
											}
										}
									}
									JOINT LeftForeArmEnd
									{
										OFFSET 0.000000 0.000000 0.000000
										CHANNELS 6 Xposition Yposition Zposition Zrotation Yrotation Xrotation
										End Site
										{
											OFFSET 0.000000 0.000000 0.100006
										}
									}
								}
								JOINT LeftArmEnd
								{
									OFFSET 0.000000 0.000000 0.000000
									CHANNELS 6 Xposition Yposition Zposition Zrotation Yrotation Xrotation
									End Site
									{
										OFFSET 0.000000 0.000000 0.100006
									}
								}
							}
						}
					}
				}
			}
		}
	}
	JOINT RightUpLeg
	{
		OFFSET -11.289948 0.000000 0.000000
		CHANNELS 6 Xposition Yposition Zposition Zrotation Yrotation Xrotation
		JOINT RightLeg
		{
			OFFSET 0.000000 0.000000 -38.200329
			CHANNELS 6 Xposition Yposition Zposition Zrotation Yrotation Xrotation
			JOINT RightFoot
			{
				OFFSET 0.000000 0.000000 -39.900856
				CHANNELS 6 Xposition Yposition Zposition Zrotation Yrotation Xrotation
				JOINT RightToeBase
				{
					OFFSET 0.000000 -15.261658 0.000001
					CHANNELS 6 Xposition Yposition Zposition Zrotation Yrotation Xrotation
					JOINT RightToeBaseEnd
					{
						OFFSET 0.000000 -7.370728 0.000001
						CHANNELS 6 Xposition Yposition Zposition Zrotation Yrotation Xrotation
						End Site
						{
							OFFSET 0.000000 0.000000 0.100000
						}
					}
				}
				JOINT RightLegEnd
				{
					OFFSET 0.000000 0.000000 0.000000
					CHANNELS 6 Xposition Yposition Zposition Zrotation Yrotation Xrotation
					End Site
					{
						OFFSET 0.000000 0.000000 0.100000
					}
				}
			}
			JOINT RightUpLegEnd
			{
				OFFSET 0.000000 0.000000 0.000000
				CHANNELS 6 Xposition Yposition Zposition Zrotation Yrotation Xrotation
				End Site
				{
					OFFSET 0.000000 0.000000 0.099998
				}
			}
		}
	}
	JOINT LeftUpLeg
	{
		OFFSET 11.315674 0.000000 0.000000
		CHANNELS 6 Xposition Yposition Zposition Zrotation Yrotation Xrotation
		JOINT LeftLeg
		{
			OFFSET 0.000000 0.000000 -38.200329
			CHANNELS 6 Xposition Yposition Zposition Zrotation Yrotation Xrotation
			JOINT LeftFoot
			{
				OFFSET 0.000000 0.000000 -39.900856
				CHANNELS 6 Xposition Yposition Zposition Zrotation Yrotation Xrotation
				JOINT LeftToeBase
				{
					OFFSET 0.000000 -15.261658 0.000001
					CHANNELS 6 Xposition Yposition Zposition Zrotation Yrotation Xrotation
					JOINT LeftToeBaseEnd
					{
						OFFSET 0.000000 -7.539978 0.000001
						CHANNELS 6 Xposition Yposition Zposition Zrotation Yrotation Xrotation
						End Site
						{
							OFFSET 0.000000 0.000000 0.100000
						}
					}
				}
				JOINT LeftLegEnd
				{
					OFFSET 0.000000 0.000000 0.000000
					CHANNELS 6 Xposition Yposition Zposition Zrotation Yrotation Xrotation
					End Site
					{
						OFFSET 0.000000 0.000000 0.100000
					}
				}
			}
			JOINT LeftUpLegEnd
			{
				OFFSET 0.000000 0.000000 0.000000
				CHANNELS 6 Xposition Yposition Zposition Zrotation Yrotation Xrotation
				End Site
				{
					OFFSET 0.000000 0.000000 0.099998
				}
			}
		}
	}
}
MOTION
Frames: 2
Frame Time: 0.016667
10.961914 -40.033325 82.104134 54.112420 -11.938938 -1.799629 0.000007 2.080068 8.814253 0.882451 2.642158 2.476408 0.000003 0.000006 8.844146 0.833967 -0.698370 1.041245 -0.000002 -0.000010 11.682278 14.894032 5.752939 4.767965 0.000021 0.000007 11.746696 5.866386 10.992539 6.628555 -0.000002 0.000008 17.658257 -23.862584 -11.289650 4.382421 0.000003 -0.000017 5.101553 -26.604297 3.325672 -6.439775 0.000005 -0.000013 5.101540 0.365319 -5.722229 -11.280521 0.000007 0.000007 11.655091 -0.000001 0.000000 0.000000 -2.625397 0.000004 11.175204 9.248159 -71.699235 -0.150986 0.000010 0.000004 10.434746 31.481773 -54.583815 -36.247442 -0.000002 -0.000021 29.628441 -3.767091 -0.906072 7.867344 -0.000015 -0.000071 22.857605 -2.557089 38.433205 -29.200640 -2.867310 -2.944275 3.959587 32.873031 -12.350636 59.650535 0.000014 -0.000014 3.350406 -2.116825 1.968284 -4.165875 -0.000020 0.000022 3.756502 -1.454727 1.383265 -2.884802 -0.000017 0.000003 3.147320 0.000000 0.000003 -0.000000 -0.086758 -2.345272 10.030899 21.756311 43.413908 32.741704 -0.000005 0.000001 4.061103 -0.630717 -0.264523 0.002887 -0.000011 0.000002 3.248888 -0.124662 0.146682 0.008436 -0.000004 -0.000000 2.639714 0.000000 -0.000000 -0.000001 0.104090 -0.006763 9.502945 15.037483 44.480405 24.360138 0.000025 -0.000002 4.568714 -0.689055 0.000122 0.000075 0.000039 0.000026 3.654972 -0.161915 0.000022 0.003940 0.000008 0.000012 2.741258 -0.000001 -0.000002 0.000001 0.086765 2.267457 8.921707 3.464623 44.217470 10.642531 0.000011 0.000002 4.061085 1.091346 -0.000233 0.000058 -0.000027 -0.000019 3.654987 0.166687 -0.000025 0.008878 0.000001 0.000001 2.741242 0.000000 -0.000001 0.000004 -0.173500 4.467228 7.976969 -8.658681 38.980467 -1.326404 0.000009 0.000011 3.350408 2.214334 -0.000494 -0.000186 -0.000007 -0.000025 2.842777 0.178716 0.000022 -0.023053 0.000014 -0.000002 2.639699 0.000001 0.000003 0.000000 -0.000002 -0.000014 -0.000004 0.000000 -0.000000 -0.000000 -0.000034 0.000002 0.000020 -0.000000 -0.000002 0.000000 2.625393 -0.000021 11.175212 1.525266 80.631879 0.111252 0.000008 -0.000004 10.813644 -49.013373 34.575534 -51.343345 0.000004 -0.000023 28.724709 -29.742322 7.879577 34.912478 0.644381 0.328857 25.716202 25.650454 -34.403246 -36.295383 2.867325 -2.944305 3.959610 -33.000926 12.049501 60.205884 -0.000003 0.000049 3.350415 1.497336 -1.421698 -2.967849 0.000001 0.000026 3.756506 1.031954 -0.995551 -2.056958 0.000006 0.000026 3.100014 -0.000004 0.000001 -0.000004 0.086784 -2.345280 10.030907 3.197287 -36.539996 9.837464 0.000007 0.000029 4.061121 -0.621565 -0.000109 0.000064 0.000001 -0.000005 3.248870 -0.133759 -0.000003 -0.000208 -0.000003 -0.000002 2.639714 -0.000000 0.000001 -0.000000 -0.104111 -0.006761 9.502945 -2.773997 -35.160465 8.501452 0.000042 -0.000027 4.568748 -0.725780 0.000004 -0.000118 0.000003 -0.000025 3.655011 -0.208083 -0.000002 -0.002613 0.000038 0.000007 2.741265 -0.000001 -0.000001 -0.000000 -0.086777 2.267441 8.921692 -12.269804 -33.722150 6.987606 0.000012 0.000008 4.061113 1.182393 0.000096 0.109988 0.000002 -0.000076 3.654991 0.162495 0.000007 0.088445 -0.000002 0.000017 2.741246 -0.000001 0.000001 0.000002 0.173500 4.467245 7.976990 -21.490553 -31.461197 4.611911 -0.000014 -0.000004 3.350424 2.196515 0.000001 0.000230 -0.000002 -0.000011 2.842768 0.165710 0.000004 -0.049498 0.000006 0.000010 2.639727 0.000000 0.000001 -0.000002 -0.000001 -0.000007 0.000009 0.000001 0.000001 0.000003 -0.000003 -0.000015 0.000012 0.000002 -0.000001 0.000003 -11.289930 0.000027 0.000015 17.377589 11.824092 -20.893072 0.000007 0.000016 -38.200256 0.464019 -0.805512 60.054589 0.000011 0.000088 -39.900852 -17.608489 -3.085378 -1.431855 0.000001 -15.261696 0.000008 -1.044731 1.853590 -21.559258 -0.000004 -7.370649 0.000001 -0.000003 -0.000001 -0.000000 0.000008 0.000055 0.000001 0.000001 -0.000000 -0.000000 -0.000004 0.000007 -0.000011 -0.000002 -0.000000 -0.000002 11.315638 0.000044 0.000000 5.987909 17.141835 -9.335292 0.000001 0.000093 -38.200260 -0.321261 0.222981 34.763863 -0.000018 -0.000058 -39.900856 12.920238 -2.252669 0.928366 -0.000010 -15.261643 0.000008 -0.767791 0.655113 -18.284369 -0.000020 -7.539978 0.000002 -0.000000 0.000000 0.000001 -0.000007 0.000009 -0.000001 -0.000002 -0.000002 -0.000000 -0.000002 0.000012 0.000001 -0.000002 0.000000 0.000001 
10.982025 -40.139282 82.535355 55.081207 -10.918476 -1.759971 0.000029 2.080094 8.814273 0.785170 2.589469 2.270997 -0.000009 0.000020 8.844153 0.785692 -0.652992 1.016349 -0.000010 -0.000001 11.682280 14.223966 4.885422 4.317917 0.000019 0.000010 11.746716 5.683777 9.593848 6.348779 0.000000 0.000011 17.658272 -24.254622 -12.097362 4.366183 0.000011 -0.000030 5.101542 -26.607489 3.359765 -6.452283 0.000000 0.000010 5.101570 0.365328 -5.583408 -11.580832 -0.000001 -0.000012 11.655076 0.000002 -0.000000 0.000000 -2.625389 -0.000009 11.175237 8.070637 -70.799699 -0.180681 0.000027 -0.000004 10.434761 31.431509 -50.721695 -37.008069 -0.000016 -0.000007 29.628426 -1.989707 -0.614401 7.620926 0.000015 -0.000032 22.857605 -3.516859 37.541769 -28.841222 -2.867348 -2.944351 3.959579 32.873055 -12.350608 59.650556 0.000006 0.000013 3.350406 -2.116830 1.968272 -4.166039 0.000006 -0.000026 3.756494 -1.454717 1.383235 -2.884658 0.000039 -0.000000 3.147347 0.000001 0.000001 0.000000 -0.086750 -2.345356 10.030914 21.599297 43.167666 32.263717 -0.000006 0.000002 4.061088 -0.630947 -0.000602 -0.000014 0.000045 0.000013 3.248874 -0.124928 0.000000 0.008787 0.000005 -0.000078 2.639708 0.000002 -0.000001 0.000001 0.104082 -0.006821 9.502899 15.019654 44.435056 24.110353 0.000000 0.000027 4.568697 -0.690277 -0.000078 0.000075 -0.000012 -0.000012 3.654963 -0.162953 -0.000004 0.004030 -0.000038 -0.000011 2.741265 0.000001 0.000002 0.000001 0.086758 2.267449 8.921700 3.503247 44.381719 10.584245 0.000021 -0.000003 4.061121 1.092134 -0.000310 0.000058 0.000004 0.000019 3.654993 0.166831 -0.000045 0.008887 0.000013 -0.000008 2.741243 0.000000 0.000000 -0.000002 -0.173523 4.467206 7.976995 -8.640077 39.338908 -1.346893 -0.000004 0.000003 3.350426 2.214897 -0.000254 -0.000176 -0.000007 0.000001 2.842777 0.179150 0.000012 -0.023403 -0.000009 0.000020 2.639713 -0.000001 0.000000 0.000002 0.000000 -0.000006 0.000016 0.000000 0.000000 -0.000002 0.000007 0.000004 0.000011 -0.000001 -0.000003 0.000000 2.625418 -0.000003 11.175226 1.188285 78.929126 0.144479 0.000046 -0.000069 10.813637 -48.450213 35.320425 -52.710062 -0.000019 -0.000053 28.724762 -31.137927 8.013116 34.730382 0.644367 0.328827 25.716171 24.882649 -35.115143 -35.841291 2.867325 -2.944275 3.959572 -33.000920 12.049486 60.205884 0.000003 0.000019 3.350392 1.497331 -1.421709 -2.967844 0.000001 -0.000069 3.756539 1.031942 -0.995556 -2.056946 0.000013 -0.000003 3.100022 0.000002 0.000002 -0.000001 0.086769 -2.345250 10.030907 3.224521 -36.424521 8.642740 0.000014 0.000030 4.061097 -0.622224 0.000003 0.000076 -0.000004 0.000013 3.248878 -0.135240 -0.000005 -0.000205 -0.000002 0.000005 2.639716 0.000001 -0.000002 0.000002 -0.104117 -0.006794 9.502956 -2.789630 -35.226656 7.427136 -0.000007 -0.000002 4.568737 -0.726720 0.039681 -0.000626 -0.000004 -0.000007 3.654998 -0.209067 -0.022038 -0.002530 0.000001 0.000003 2.741224 -0.000002 -0.000002 -0.000001 -0.086769 2.267445 8.921711 -12.355995 -34.034549 5.981411 0.000002 -0.000003 4.061124 1.182968 0.000178 0.111484 -0.000011 -0.000050 3.655006 0.163515 0.000001 0.089594 -0.000014 0.000004 2.741247 0.000000 -0.000000 -0.000001 0.173492 4.467257 7.976995 -21.654350 -32.040151 3.629805 -0.000003 -0.000027 3.350416 2.197175 -0.027957 -0.000840 0.000026 -0.000008 2.842757 0.166284 0.015208 -0.049391 -0.000011 -0.000010 2.639698 0.000002 -0.000000 -0.000001 -0.000002 -0.000009 0.000014 0.000003 -0.000001 0.000002 -0.000002 0.000007 0.000014 -0.000001 -0.000001 0.000000 -11.289949 -0.000008 0.000000 16.153408 10.849002 -20.082535 -0.000011 0.000072 -38.200298 0.449919 -0.714644 57.806152 -0.000001 -0.000021 -39.900856 -17.380933 -2.934467 -0.996506 -0.000002 -15.261644 0.000006 -0.934303 1.820846 -21.521675 -0.000005 -7.370579 -0.000001 -0.000004 0.000000 -0.000000 -0.000008 -0.000001 -0.000000 0.000000 -0.000001 0.000000 -0.000005 0.000005 -0.000008 -0.000001 -0.000000 -0.000004 11.315645 0.000025 0.000023 4.360107 16.216628 -9.541165 -0.000006 0.000083 -38.200264 -0.339313 0.227144 33.954271 0.000017 -0.000071 -39.900848 13.375555 -2.266214 1.721120 -0.000005 -15.261633 -0.000001 -0.728483 0.581950 -18.307731 0.000014 -7.539919 0.000001 0.000000 0.000000 -0.000000 -0.000001 -0.000006 0.000002 0.000001 -0.000001 0.000000 -0.000012 0.000070 -0.000005 -0.000002 0.000000 0.000000 
